<svg xmlns="http://www.w3.org/2000/svg" width="1800" height="1200" viewBox="0 0 1800 1200">
  <rect x="0" y="0" width="1800" height="1200" fill="white" stroke="black"/>

  <text x="30" y="40" font-family="Arial" font-size="28" fill="black">Wireframe Calendario - Workspace / Proyecto / Disponibilidad</text>

  <!-- Screen A: Project Calendar -->
  <rect x="30" y="80" width="540" height="500" fill="none" stroke="black"/>
  <text x="45" y="110" font-family="Arial" font-size="20">A) Calendario de Proyecto</text>

  <rect x="45" y="130" width="510" height="45" fill="none" stroke="black"/>
  <text x="55" y="158" font-family="Arial" font-size="14">Breadcrumb: Workspace / Proyecto / Calendario</text>

  <rect x="45" y="190" width="510" height="70" fill="none" stroke="black"/>
  <text x="55" y="215" font-family="Arial" font-size="14">Filtros: [Lista] [Estado tarea] [Asignado a] [Disponibilidad]</text>
  <text x="55" y="238" font-family="Arial" font-size="14">Vista: [Mes] [Semana] [Dia]  |  Boton: Ir a Kanban de lista</text>

  <rect x="45" y="275" width="510" height="290" fill="none" stroke="black"/>
  <text x="55" y="300" font-family="Arial" font-size="14">Grid calendario (ej. mes):</text>
  <rect x="60" y="320" width="70" height="45" fill="none" stroke="black"/>
  <rect x="130" y="320" width="70" height="45" fill="none" stroke="black"/>
  <rect x="200" y="320" width="70" height="45" fill="none" stroke="black"/>
  <rect x="270" y="320" width="70" height="45" fill="none" stroke="black"/>
  <rect x="340" y="320" width="70" height="45" fill="none" stroke="black"/>
  <rect x="410" y="320" width="70" height="45" fill="none" stroke="black"/>
  <rect x="480" y="320" width="60" height="45" fill="none" stroke="black"/>

  <rect x="60" y="365" width="70" height="45" fill="none" stroke="black"/>
  <rect x="130" y="365" width="70" height="45" fill="none" stroke="black"/>
  <rect x="200" y="365" width="70" height="45" fill="none" stroke="black"/>
  <rect x="270" y="365" width="70" height="45" fill="none" stroke="black"/>
  <rect x="340" y="365" width="70" height="45" fill="none" stroke="black"/>
  <rect x="410" y="365" width="70" height="45" fill="none" stroke="black"/>
  <rect x="480" y="365" width="60" height="45" fill="none" stroke="black"/>

  <rect x="60" y="410" width="70" height="45" fill="none" stroke="black"/>
  <rect x="130" y="410" width="70" height="45" fill="none" stroke="black"/>
  <rect x="200" y="410" width="70" height="45" fill="none" stroke="black"/>
  <rect x="270" y="410" width="70" height="45" fill="none" stroke="black"/>
  <rect x="340" y="410" width="70" height="45" fill="none" stroke="black"/>
  <rect x="410" y="410" width="70" height="45" fill="none" stroke="black"/>
  <rect x="480" y="410" width="60" height="45" fill="none" stroke="black"/>

  <text x="65" y="385" font-family="Arial" font-size="12">12 (3 tareas)</text>
  <text x="205" y="430" font-family="Arial" font-size="12">20 (7 tareas)</text>
  <text x="350" y="475" font-family="Arial" font-size="12">27 (1 tarea)</text>
  <text x="55" y="548" font-family="Arial" font-size="13">Click dia -> abre panel de detalle diario</text>

  <!-- Screen B: Day detail panel -->
  <rect x="620" y="80" width="540" height="500" fill="none" stroke="black"/>
  <text x="635" y="110" font-family="Arial" font-size="20">B) Detalle diario (proyecto)</text>

  <rect x="635" y="130" width="510" height="45" fill="none" stroke="black"/>
  <text x="645" y="158" font-family="Arial" font-size="14">Fecha seleccionada: 2026-03-20  |  Total tareas: 7</text>

  <rect x="635" y="190" width="510" height="265" fill="none" stroke="black"/>
  <text x="645" y="215" font-family="Arial" font-size="14">Timeline del dia (00:00 - 23:59)</text>
  <line x1="680" y1="235" x2="680" y2="430" stroke="black"/>
  <text x="645" y="240" font-family="Arial" font-size="12">08:00</text>
  <text x="645" y="280" font-family="Arial" font-size="12">10:00</text>
  <text x="645" y="320" font-family="Arial" font-size="12">12:00</text>
  <text x="645" y="360" font-family="Arial" font-size="12">14:00</text>
  <text x="645" y="400" font-family="Arial" font-size="12">16:00</text>

  <rect x="700" y="245" width="430" height="30" fill="none" stroke="black"/>
  <text x="710" y="265" font-family="Arial" font-size="12">Tarea #1 - Lista A - PENDING - 40 min</text>
  <rect x="700" y="300" width="430" height="30" fill="none" stroke="black"/>
  <text x="710" y="320" font-family="Arial" font-size="12">Tarea #2 - Lista B - IN_PROGRESS - 30 min</text>
  <rect x="700" y="355" width="430" height="30" fill="none" stroke="black"/>
  <text x="710" y="375" font-family="Arial" font-size="12">Tarea #3 - Lista A - DONE - 25 min</text>

  <rect x="635" y="465" width="510" height="100" fill="none" stroke="black"/>
  <text x="645" y="488" font-family="Arial" font-size="14">Acciones:</text>
  <text x="645" y="510" font-family="Arial" font-size="13">- Ver detalle de tarea</text>
  <text x="645" y="530" font-family="Arial" font-size="13">- Ir al Kanban de la lista seleccionada</text>
  <text x="645" y="550" font-family="Arial" font-size="13">- Ir a la disponibilidad asociada</text>

  <!-- Screen C: Availability calendar -->
  <rect x="1210" y="80" width="560" height="500" fill="none" stroke="black"/>
  <text x="1225" y="110" font-family="Arial" font-size="20">C) Calendario de Disponibilidad</text>

  <rect x="1225" y="130" width="530" height="45" fill="none" stroke="black"/>
  <text x="1235" y="158" font-family="Arial" font-size="14">Disponibilidad: Sprint Q1 | Rango: 2026-02-01 a 2026-05-31</text>

  <rect x="1225" y="190" width="530" height="110" fill="none" stroke="black"/>
  <text x="1235" y="215" font-family="Arial" font-size="14">Resumen reglas:</text>
  <text x="1235" y="238" font-family="Arial" font-size="13">- Segmentos activos: 3</text>
  <text x="1235" y="258" font-family="Arial" font-size="13">- Minutos usables semana: 870</text>
  <text x="1235" y="278" font-family="Arial" font-size="13">- Fechas excluidas aplicadas: 5</text>

  <rect x="1225" y="315" width="530" height="250" fill="none" stroke="black"/>
  <text x="1235" y="340" font-family="Arial" font-size="14">Bloques usables por dia (union de segmentos):</text>
  <rect x="1240" y="355" width="500" height="35" fill="none" stroke="black"/>
  <text x="1250" y="378" font-family="Arial" font-size="12">2026-03-20 | 08:00-10:00, 14:00-16:30 | total 270 min</text>
  <rect x="1240" y="395" width="500" height="35" fill="none" stroke="black"/>
  <text x="1250" y="418" font-family="Arial" font-size="12">2026-03-21 | 09:00-12:00 | total 180 min</text>
  <rect x="1240" y="435" width="500" height="35" fill="none" stroke="black"/>
  <text x="1250" y="458" font-family="Arial" font-size="12">2026-03-22 | (excluida) | total 0 min</text>
  <rect x="1240" y="475" width="500" height="35" fill="none" stroke="black"/>
  <text x="1250" y="498" font-family="Arial" font-size="12">2026-03-23 | 07:30-09:00, 19:00-21:00 | total 210 min</text>

  <!-- Screen D: Task quick modal -->
  <rect x="30" y="650" width="870" height="500" fill="none" stroke="black"/>
  <text x="45" y="680" font-family="Arial" font-size="20">D) Modal rapida de tarea (desde calendario)</text>

  <rect x="50" y="700" width="830" height="70" fill="none" stroke="black"/>
  <text x="60" y="725" font-family="Arial" font-size="14">Tarea: Preparar reporte</text>
  <text x="60" y="748" font-family="Arial" font-size="14">Workspace: W1 | Proyecto: P1 | Lista: L-Backlog | Estado: PENDING</text>

  <rect x="50" y="785" width="400" height="345" fill="none" stroke="black"/>
  <text x="60" y="810" font-family="Arial" font-size="14">Datos principales</text>
  <text x="60" y="835" font-family="Arial" font-size="13">Duracion: 45 min</text>
  <text x="60" y="858" font-family="Arial" font-size="13">Asignado a: Juan</text>
  <text x="60" y="881" font-family="Arial" font-size="13">Prioridad: Alta</text>
  <text x="60" y="904" font-family="Arial" font-size="13">Ultimo cambio estado: Maria, 2026-03-19 18:14</text>

  <rect x="470" y="785" width="410" height="345" fill="none" stroke="black"/>
  <text x="480" y="810" font-family="Arial" font-size="14">Acciones</text>
  <text x="480" y="835" font-family="Arial" font-size="13">[Mover estado] [Ir a Kanban] [Ver comentarios] [Editar]</text>
  <text x="480" y="860" font-family="Arial" font-size="13">[Cerrar]</text>

  <!-- Screen E: Flow map -->
  <rect x="930" y="650" width="840" height="500" fill="none" stroke="black"/>
  <text x="945" y="680" font-family="Arial" font-size="20">E) Flujo de navegacion</text>

  <rect x="960" y="710" width="210" height="60" fill="none" stroke="black"/>
  <text x="980" y="745" font-family="Arial" font-size="14">Calendario proyecto</text>

  <rect x="1250" y="710" width="220" height="60" fill="none" stroke="black"/>
  <text x="1270" y="745" font-family="Arial" font-size="14">Detalle diario</text>

  <rect x="1550" y="710" width="190" height="60" fill="none" stroke="black"/>
  <text x="1570" y="745" font-family="Arial" font-size="14">Kanban lista</text>

  <rect x="960" y="850" width="220" height="60" fill="none" stroke="black"/>
  <text x="980" y="885" font-family="Arial" font-size="14">Calendario disponibilidad</text>

  <rect x="1260" y="850" width="220" height="60" fill="none" stroke="black"/>
  <text x="1285" y="885" font-family="Arial" font-size="14">Modal tarea</text>

  <line x1="1170" y1="740" x2="1250" y2="740" stroke="black"/>
  <polygon points="1250,740 1240,734 1240,746" fill="black"/>

  <line x1="1470" y1="740" x2="1550" y2="740" stroke="black"/>
  <polygon points="1550,740 1540,734 1540,746" fill="black"/>

  <line x1="1070" y1="770" x2="1070" y2="850" stroke="black"/>
  <polygon points="1070,850 1064,840 1076,840" fill="black"/>

  <line x1="1360" y1="770" x2="1360" y2="850" stroke="black"/>
  <polygon points="1360,850 1354,840 1366,840" fill="black"/>

  <line x1="1480" y1="880" x2="1550" y2="770" stroke="black"/>
  <polygon points="1550,770 1540,773 1550,783" fill="black"/>

  <text x="960" y="950" font-family="Arial" font-size="13">Click dia en calendario proyecto -> detalle diario</text>
  <text x="960" y="972" font-family="Arial" font-size="13">Desde detalle diario o modal -> ir a kanban de lista</text>
  <text x="960" y="994" font-family="Arial" font-size="13">Desde proyecto/disponibilidad -> cambiar vista calendario</text>
  <text x="960" y="1016" font-family="Arial" font-size="13">Todo mantiene contexto: workspace / proyecto / disponibilidad / lista</text>

  <text x="30" y="1180" font-family="Arial" font-size="12">Nota: wireframe en baja fidelidad, sin estilos CSS ni filtros, solo SVG base.</text>
</svg>
