<svg width="1700" height="1180" viewBox="0 0 1700 1180" xmlns="http://www.w3.org/2000/svg">
  <defs>
    <style>
      .bg { fill:#eef2f7; }
      .panel { fill:#f8fafc; stroke:#b8c6d8; stroke-width:1.4; }
      .head { fill:#ffffff; stroke:#b8c6d8; stroke-width:1.2; }
      .col { fill:#ffffff; stroke:#7b8ea6; stroke-width:1.2; }
      .seg { fill:#eef2ff; stroke:#6f86ff; stroke-width:1.2; }
      .task { fill:#e3efff; stroke:#3b82f6; stroke-width:1.2; }
      .task-static { fill:#edf2f7; stroke:#94a3b8; stroke-width:1.2; }
      .cut { stroke:#2f80ff; stroke-width:2; stroke-dasharray:10 8; }
      .title { font:700 38px 'Segoe UI',sans-serif; fill:#1e293b; }
      .h { font:700 30px 'Segoe UI',sans-serif; fill:#1e293b; }
      .txt { font:500 22px 'Segoe UI',sans-serif; fill:#475569; }
      .meta { font:500 18px 'Segoe UI',sans-serif; fill:#5b6b80; }
      .note { font:600 17px 'Segoe UI',sans-serif; fill:#1d4ed8; }
    </style>
  </defs>

  <rect x="0" y="0" width="1700" height="1180" class="bg"/>
  <rect x="10" y="12" width="1680" height="1155" rx="18" class="panel"/>

  <text x="38" y="70" class="title">Kanban Temporal (Malla Compartida)</text>
  <text x="40" y="102" class="note">Regla: solo Segmentos + Pendiente + Progreso usan la linea de tiempo (encadenados).</text>

  <rect x="38" y="128" width="320" height="64" class="head"/>
  <rect x="358" y="128" width="330" height="64" class="head"/>
  <rect x="688" y="128" width="330" height="64" class="head"/>
  <rect x="1018" y="128" width="330" height="64" class="head"/>
  <rect x="1348" y="128" width="330" height="64" class="head"/>

  <text x="56" y="168" class="h">Segmentos</text>
  <text x="382" y="168" class="h">PENDIENTE</text>
  <text x="712" y="168" class="h">PROGRESO</text>
  <text x="1042" y="168" class="h">TERMINADO</text>
  <text x="1372" y="168" class="h">ABANDONADO</text>

  <rect x="38" y="192" width="320" height="960" class="col"/>
  <rect x="358" y="192" width="330" height="960" class="col"/>
  <rect x="688" y="192" width="330" height="960" class="col"/>
  <rect x="1018" y="192" width="330" height="960" class="col"/>
  <rect x="1348" y="192" width="330" height="960" class="col"/>

  <!-- Timeline cuts ONLY through Segmentos + Pendiente + Progreso -->
  <line x1="20" y1="315" x2="1018" y2="315" class="cut"/>
  <line x1="20" y1="445" x2="1018" y2="445" class="cut"/>
  <line x1="20" y1="585" x2="1018" y2="585" class="cut"/>
  <line x1="20" y1="745" x2="1018" y2="745" class="cut"/>
  <line x1="20" y1="915" x2="1018" y2="915" class="cut"/>
  <line x1="20" y1="1065" x2="1018" y2="1065" class="cut"/>

  <!-- Segmentos -->
  <rect x="46" y="208" width="304" height="104" class="seg"/>
  <text x="58" y="238" class="txt">Segmento A</text>
  <text x="58" y="266" class="meta">Fecha: 2026-03-03</text>
  <text x="58" y="292" class="meta">Hora inicio: 09:00 | Hora fin: 11:30</text>

  <rect x="46" y="330" width="304" height="104" class="seg"/>
  <text x="58" y="360" class="txt">Segmento B</text>
  <text x="58" y="388" class="meta">Fecha: 2026-03-03</text>
  <text x="58" y="414" class="meta">Hora inicio: 14:00 | Hora fin: 16:30</text>

  <rect x="46" y="470" width="304" height="104" class="seg"/>
  <text x="58" y="500" class="txt">Segmento A</text>
  <text x="58" y="528" class="meta">Fecha: 2026-03-04</text>
  <text x="58" y="554" class="meta">Hora inicio: 09:00 | Hora fin: 11:30</text>

  <rect x="46" y="630" width="304" height="104" class="seg"/>
  <text x="58" y="660" class="txt">Segmento C</text>
  <text x="58" y="688" class="meta">Fecha: 2026-03-05</text>
  <text x="58" y="714" class="meta">Hora inicio: 10:30 | Hora fin: 13:00</text>

  <rect x="46" y="800" width="304" height="104" class="seg"/>
  <text x="58" y="830" class="txt">Segmento D</text>
  <text x="58" y="858" class="meta">Fecha: 2026-03-06</text>
  <text x="58" y="884" class="meta">Hora inicio: 15:00 | Hora fin: 17:00</text>

  <rect x="46" y="950" width="304" height="104" class="seg"/>
  <text x="58" y="980" class="txt">Segmento E</text>
  <text x="58" y="1008" class="meta">Fecha: 2026-03-07</text>
  <text x="58" y="1034" class="meta">Hora inicio: 08:30 | Hora fin: 11:00</text>

  <!-- Pendiente (encadenado en timeline) -->
  <rect x="366" y="212" width="314" height="94" class="task"/>
  <text x="382" y="242" class="txt">Dise±ar flujo de onboarding</text>
  <text x="382" y="270" class="meta">90 min | Segmento A | 2026-03-03 09:00</text>
  <text x="382" y="296" class="meta">[Subir] [Bajar] [Editar]</text>

  <rect x="366" y="472" width="314" height="94" class="task"/>
  <text x="382" y="502" class="txt">Configurar alertas de despliegue</text>
  <text x="382" y="530" class="meta">60 min | Segmento A | 2026-03-04 09:30</text>
  <text x="382" y="556" class="meta">[Subir] [Bajar] [Editar]</text>

  <rect x="366" y="640" width="314" height="94" class="task"/>
  <text x="382" y="670" class="txt">Documentar API de facturaci¾n</text>
  <text x="382" y="698" class="meta">75 min | Segmento C | 2026-03-05 10:30</text>
  <text x="382" y="724" class="meta">[Subir] [Bajar] [Editar]</text>

  <!-- Progreso (encadenado en timeline) -->
  <rect x="696" y="334" width="314" height="96" class="task"/>
  <text x="712" y="364" class="txt">Implementar login con SSO</text>
  <text x="712" y="392" class="meta">120 min | Segmento B | 2026-03-03 14:00</text>
  <text x="712" y="418" class="meta">[Subir] [Bajar] [Editar]</text>

  <rect x="696" y="588" width="314" height="102" class="task"/>
  <text x="712" y="618" class="txt">Refactor validaciones de tareas</text>
  <text x="712" y="646" class="meta">80 min | Segmento C | 2026-03-05 11:20</text>
  <text x="712" y="674" class="meta">[Subir] [Bajar] [Editar]</text>

  <!-- Terminado (fuera de timeline; no alineado por cortes) -->
  <rect x="1026" y="210" width="314" height="94" class="task-static"/>
  <text x="1042" y="240" class="txt">Optimizar consulta de calendario</text>
  <text x="1042" y="268" class="meta">45 min | Cerrada 2026-03-05 12:10</text>
  <text x="1042" y="294" class="meta">[Editar]</text>

  <rect x="1026" y="330" width="314" height="94" class="task-static"/>
  <text x="1042" y="360" class="txt">Ajustar permisos de workspace</text>
  <text x="1042" y="388" class="meta">35 min | Cerrada 2026-03-04 18:40</text>
  <text x="1042" y="414" class="meta">[Editar]</text>

  <!-- Abandonado (fuera de timeline; no alineado por cortes) -->
  <rect x="1356" y="250" width="314" height="94" class="task-static"/>
  <text x="1372" y="280" class="txt">Migrar reportes legacy a v3</text>
  <text x="1372" y="308" class="meta">30 min | Abandonada 2026-03-06 15:30</text>
  <text x="1372" y="334" class="meta">[Editar]</text>

  <rect x="1356" y="370" width="314" height="94" class="task-static"/>
  <text x="1372" y="400" class="txt">Integrar proveedor SMTP alterno</text>
  <text x="1372" y="428" class="meta">50 min | Abandonada 2026-03-07 09:10</text>
  <text x="1372" y="454" class="meta">[Editar]</text>
</svg>
